<svg version="1.1" id="Layer_1" xmlns="http://www.w3.org/2000/svg" xmlns:xlink="http://www.w3.org/1999/xlink" x="0px" y="0px"
	 width="100%" viewBox="0 0 4500 4500" enable-background="new 0 0 4500 4500" xml:space="preserve">
<path fill="#FFFFFF" opacity="1.000000" stroke="none" 
	d="
M2848.000000,4504.000000 
	C1898.771606,4504.000000 951.543274,4504.000000 4.157454,4504.000000 
	C4.157454,3004.271240 4.157454,1504.542358 4.157454,4.406766 
	C1503.562622,4.406766 3003.125244,4.406766 4503.343750,4.406766 
	C4503.343750,1503.999756 4503.343750,3003.999756 4503.343750,4504.000000 
	C3952.540771,4504.000000 3401.270264,4504.000000 2848.000000,4504.000000 
M2490.000000,3528.171875 
	C2669.313965,3528.171875 2848.627930,3528.172119 3027.941895,3528.171387 
	C3115.265869,3528.170898 3202.590332,3528.016357 3289.913574,3528.262695 
	C3314.804932,3528.332764 3339.039307,3524.950684 3362.773926,3517.685303 
	C3457.902100,3488.566650 3531.657959,3398.770508 3531.618652,3285.387939 
	C3531.380371,2598.795166 3531.510742,1912.202271 3531.386719,1225.609497 
	C3531.384766,1213.668579 3530.228516,1201.670166 3528.800781,1189.796143 
	C3518.018799,1100.139771 3452.117432,1018.369202 3357.043213,991.593750 
	C3332.361816,984.642822 3307.309082,983.025940 3281.883057,983.028687 
	C2599.956299,983.102600 1918.029663,983.086548 1236.103027,983.098999 
	C1228.105347,983.099121 1220.102905,983.133911 1212.111450,983.408569 
	C1205.454102,983.637390 1198.713989,983.671753 1192.173828,984.766907 
	C1103.931030,999.543823 1041.003296,1047.543579 1004.379211,1129.255737 
	C989.688293,1162.032959 985.339050,1196.967896 985.341797,1232.643188 
	C985.386963,1825.246094 985.373840,2417.849121 985.373657,3010.451904 
	C985.373596,3100.442139 985.214905,3190.433105 985.522156,3280.422363 
	C985.576599,3296.370117 985.957214,3312.619873 988.937500,3328.204346 
	C1005.733337,3416.034424 1055.434204,3477.752930 1138.275391,3511.994629 
	C1168.214600,3524.369629 1199.740112,3528.319580 1232.135010,3528.303955 
	C1650.089966,3528.102295 2068.044922,3528.171387 2490.000000,3528.171875 
z"/>
<path fill="#FF731D" opacity="1.000000" stroke="none" 
	d="
M2488.000000,3528.171875 
	C2068.044922,3528.171387 1650.089966,3528.102295 1232.135010,3528.303955 
	C1199.740112,3528.319580 1168.214600,3524.369629 1138.275391,3511.994629 
	C1055.434204,3477.752930 1005.733337,3416.034424 988.937500,3328.204346 
	C985.957214,3312.619873 985.576599,3296.370117 985.522156,3280.422363 
	C985.214905,3190.433105 985.373596,3100.442139 985.373657,3010.451904 
	C985.373840,2417.849121 985.386963,1825.246094 985.341797,1232.643188 
	C985.339050,1196.967896 989.688293,1162.032959 1004.379211,1129.255737 
	C1041.003296,1047.543579 1103.931030,999.543823 1192.173828,984.766907 
	C1198.713989,983.671753 1205.454102,983.637390 1212.111450,983.408569 
	C1220.102905,983.133911 1228.105347,983.099121 1236.103027,983.098999 
	C1918.029663,983.086548 2599.956299,983.102600 3281.883057,983.028687 
	C3307.309082,983.025940 3332.361816,984.642822 3357.043213,991.593750 
	C3452.117432,1018.369202 3518.018799,1100.139771 3528.800781,1189.796143 
	C3530.228516,1201.670166 3531.384766,1213.668579 3531.386719,1225.609497 
	C3531.510742,1912.202271 3531.380371,2598.795166 3531.618652,3285.387939 
	C3531.657959,3398.770508 3457.902100,3488.566650 3362.773926,3517.685303 
	C3339.039307,3524.950684 3314.804932,3528.332764 3289.913574,3528.262695 
	C3202.590332,3528.016357 3115.265869,3528.170898 3027.941895,3528.171387 
	C2848.627930,3528.172119 2669.313965,3528.171875 2488.000000,3528.171875 
M1859.930054,1801.867310 
	C1872.299927,1791.735596 1884.304810,1781.115723 1897.099121,1771.551880 
	C1978.168213,1710.951782 2070.594482,1682.422607 2170.589111,1676.590210 
	C2217.241211,1673.869141 2263.825684,1675.783813 2310.069092,1683.774658 
	C2369.748535,1694.087158 2426.443359,1712.829712 2478.322998,1744.289429 
	C2595.585938,1815.397583 2670.830566,1918.442749 2707.713623,2049.934814 
	C2724.739258,2110.633301 2731.212891,2172.811035 2731.737305,2235.714844 
	C2731.796387,2242.826904 2730.327881,2250.205566 2733.709717,2258.107422 
	C2740.476562,2258.383057 2747.016602,2258.872803 2753.556885,2258.880859 
	C2806.222900,2258.944092 2858.888672,2258.916260 2911.554688,2258.916260 
	C2974.887207,2258.916260 3038.219727,2258.973633 3101.551758,2258.827881 
	C3107.951172,2258.813232 3114.870117,2260.793701 3121.626465,2255.535156 
	C3122.009521,2250.032959 3123.023926,2244.126465 3122.728516,2238.286377 
	C3120.945801,2203.033936 3119.673096,2167.728516 3116.698975,2132.570312 
	C3111.683838,2073.281982 3099.073730,2015.385376 3081.185303,1958.688965 
	C3023.307129,1775.246094 2918.375977,1624.123657 2766.614258,1506.245117 
	C2621.063721,1393.190674 2455.395996,1330.804443 2271.758301,1317.043579 
	C2220.590820,1313.209351 2169.235352,1314.010010 2117.973633,1319.093140 
	C2060.780273,1324.764648 2004.570923,1335.055664 1949.492432,1351.370728 
	C1760.839233,1407.252441 1605.449097,1512.714600 1484.133179,1667.295776 
	C1371.697754,1810.561157 1308.682739,1973.980103 1293.098633,2155.307617 
	C1288.245728,2211.771973 1289.184692,2268.427979 1294.999023,2324.990234 
	C1301.152344,2384.852783 1312.630371,2443.559326 1330.652466,2500.907715 
	C1391.592041,2694.823975 1504.356201,2851.827393 1667.995728,2972.225342 
	C1743.222534,3027.572998 1825.168457,3069.740967 1914.819702,3096.764160 
	C2024.401733,3129.795166 2136.358887,3141.745361 2250.487061,3137.281982 
	C2308.594238,3135.009521 2366.035889,3128.223877 2422.788086,3115.862061 
	C2480.166748,3103.363281 2536.318359,3086.953857 2589.797119,3062.097412 
	C2641.325684,3038.147461 2690.218262,3009.777344 2736.584229,2976.982178 
	C2741.932373,2973.199463 2747.422607,2969.617432 2753.408203,2965.562256 
	C2759.137695,2971.016357 2764.020020,2975.479492 2768.697998,2980.147705 
	C2797.013428,3008.399902 2825.282715,3036.698486 2853.566650,3064.982178 
	C2892.692383,3104.108643 2931.774414,3143.278809 2971.002686,3182.302246 
	C2975.508545,3186.784912 2979.045898,3192.988037 2986.118652,3193.734375 
	C3008.538086,3174.545166 3216.044189,2966.131836 3225.430664,2953.190918 
	C3221.058105,2948.577393 3216.636230,2943.688232 3211.981201,2939.032471 
	C2989.970947,2716.985840 2767.948730,2494.951172 2545.893799,2272.949219 
	C2529.514160,2256.573242 2534.680908,2258.686768 2511.174805,2258.676025 
	C2365.176758,2258.609131 2219.178711,2258.642090 2073.180664,2258.643555 
	C2069.180664,2258.643799 2065.173096,2258.510498 2061.183350,2258.717285 
	C2058.112061,2258.876465 2054.352539,2257.924805 2052.747803,2263.641602 
	C2057.806396,2268.797607 2063.283691,2274.473145 2068.859619,2280.049805 
	C2202.728027,2413.935303 2336.606934,2547.810547 2470.484131,2681.687500 
	C2478.497803,2689.701172 2486.588867,2697.639893 2494.477539,2705.774658 
	C2497.069580,2708.447754 2499.134277,2711.632568 2501.997803,2715.296875 
	C2498.378418,2718.113037 2496.001709,2720.404297 2493.236816,2722.038574 
	C2480.622314,2729.495361 2468.151123,2737.252197 2455.171875,2744.025391 
	C2385.943359,2780.150391 2311.579834,2796.326904 2234.111572,2799.524902 
	C2204.146729,2800.762207 2174.212646,2799.779541 2144.262695,2796.741211 
	C2084.016357,2790.629639 2026.074097,2776.266113 1971.836792,2749.226807 
	C1856.431152,2691.693359 1776.096924,2601.648926 1727.945923,2482.500000 
	C1698.594360,2409.870117 1687.385132,2333.664551 1685.080933,2255.920898 
	C1683.635986,2207.177002 1687.414429,2158.727783 1695.509277,2110.599854 
	C1715.731079,1990.371826 1767.590942,1886.943237 1859.930054,1801.867310 
z"/>
<path fill="#FFFEFE" opacity="1.000000" stroke="none" 
	d="
M1858.878662,1802.826904 
	C1767.590942,1886.943237 1715.731079,1990.371826 1695.509277,2110.599854 
	C1687.414429,2158.727783 1683.635986,2207.177002 1685.080933,2255.920898 
	C1687.385132,2333.664551 1698.594360,2409.870117 1727.945923,2482.500000 
	C1776.096924,2601.648926 1856.431152,2691.693359 1971.836792,2749.226807 
	C2026.074097,2776.266113 2084.016357,2790.629639 2144.262695,2796.741211 
	C2174.212646,2799.779541 2204.146729,2800.762207 2234.111572,2799.524902 
	C2311.579834,2796.326904 2385.943359,2780.150391 2455.171875,2744.025391 
	C2468.151123,2737.252197 2480.622314,2729.495361 2493.236816,2722.038574 
	C2496.001709,2720.404297 2498.378418,2718.113037 2501.997803,2715.296875 
	C2499.134277,2711.632568 2497.069580,2708.447754 2494.477539,2705.774658 
	C2486.588867,2697.639893 2478.497803,2689.701172 2470.484131,2681.687500 
	C2336.606934,2547.810547 2202.728027,2413.935303 2068.859619,2280.049805 
	C2063.283691,2274.473145 2057.806396,2268.797607 2052.747803,2263.641602 
	C2054.352539,2257.924805 2058.112061,2258.876465 2061.183350,2258.717285 
	C2065.173096,2258.510498 2069.180664,2258.643799 2073.180664,2258.643555 
	C2219.178711,2258.642090 2365.176758,2258.609131 2511.174805,2258.676025 
	C2534.680908,2258.686768 2529.514160,2256.573242 2545.893799,2272.949219 
	C2767.948730,2494.951172 2989.970947,2716.985840 3211.981201,2939.032471 
	C3216.636230,2943.688232 3221.058105,2948.577393 3225.430664,2953.190918 
	C3216.044189,2966.131836 3008.538086,3174.545166 2986.118652,3193.734375 
	C2979.045898,3192.988037 2975.508545,3186.784912 2971.002686,3182.302246 
	C2931.774414,3143.278809 2892.692383,3104.108643 2853.566650,3064.982178 
	C2825.282715,3036.698486 2797.013428,3008.399902 2768.697998,2980.147705 
	C2764.020020,2975.479492 2759.137695,2971.016357 2753.408203,2965.562256 
	C2747.422607,2969.617432 2741.932373,2973.199463 2736.584229,2976.982178 
	C2690.218262,3009.777344 2641.325684,3038.147461 2589.797119,3062.097412 
	C2536.318359,3086.953857 2480.166748,3103.363281 2422.788086,3115.862061 
	C2366.035889,3128.223877 2308.594238,3135.009521 2250.487061,3137.281982 
	C2136.358887,3141.745361 2024.401733,3129.795166 1914.819702,3096.764160 
	C1825.168457,3069.740967 1743.222534,3027.572998 1667.995728,2972.225342 
	C1504.356201,2851.827393 1391.592041,2694.823975 1330.652466,2500.907715 
	C1312.630371,2443.559326 1301.152344,2384.852783 1294.999023,2324.990234 
	C1289.184692,2268.427979 1288.245728,2211.771973 1293.098633,2155.307617 
	C1308.682739,1973.980103 1371.697754,1810.561157 1484.133179,1667.295776 
	C1605.449097,1512.714600 1760.839233,1407.252441 1949.492432,1351.370728 
	C2004.570923,1335.055664 2060.780273,1324.764648 2117.973633,1319.093140 
	C2169.235352,1314.010010 2220.590820,1313.209351 2271.758301,1317.043579 
	C2455.395996,1330.804443 2621.063721,1393.190674 2766.614258,1506.245117 
	C2918.375977,1624.123657 3023.307129,1775.246094 3081.185303,1958.688965 
	C3099.073730,2015.385376 3111.683838,2073.281982 3116.698975,2132.570312 
	C3119.673096,2167.728516 3120.945801,2203.033936 3122.728516,2238.286377 
	C3123.023926,2244.126465 3122.009521,2250.032959 3121.626465,2255.535156 
	C3114.870117,2260.793701 3107.951172,2258.813232 3101.551758,2258.827881 
	C3038.219727,2258.973633 2974.887207,2258.916260 2911.554688,2258.916260 
	C2858.888672,2258.916260 2806.222900,2258.944092 2753.556885,2258.880859 
	C2747.016602,2258.872803 2740.476562,2258.383057 2733.709717,2258.107422 
	C2730.327881,2250.205566 2731.796387,2242.826904 2731.737305,2235.714844 
	C2731.212891,2172.811035 2724.739258,2110.633301 2707.713623,2049.934814 
	C2670.830566,1918.442749 2595.585938,1815.397583 2478.322998,1744.289429 
	C2426.443359,1712.829712 2369.748535,1694.087158 2310.069092,1683.774658 
	C2263.825684,1675.783813 2217.241211,1673.869141 2170.589111,1676.590210 
	C2070.594482,1682.422607 1978.168213,1710.951782 1897.099121,1771.551880 
	C1884.304810,1781.115723 1872.299927,1791.735596 1858.878662,1802.826904 
z"/>
</svg>