<svg version="1.1" id="Layer_1" xmlns="http://www.w3.org/2000/svg" xmlns:xlink="http://www.w3.org/1999/xlink" x="0px" y="0px"
	 width="100%" viewBox="0 0 4500 4500" enable-background="new 0 0 4500 4500" xml:space="preserve">
<path fill="#FFFFFF" opacity="1.000000" stroke="none" 
	d="
M4164.000000,4504.000000 
	C2776.000000,4504.000000 1390.000000,4504.000000 4.000000,4504.000000 
	C4.000000,3004.000000 4.000000,1504.000000 4.000000,4.000001 
	C1504.000000,4.000000 3004.000000,4.000000 4504.000000,4.000000 
	C4504.000000,1504.000000 4504.000000,3004.000000 4504.000000,4504.000000 
	C4391.333496,4504.000000 4278.666504,4504.000000 4164.000000,4504.000000 
M1080.430054,2482.494629 
	C1085.613159,2477.309570 1090.795776,2472.124023 1095.979858,2466.939697 
	C1100.692383,2462.226807 1105.532471,2457.633301 1110.085571,2452.770996 
	C1114.908081,2447.621094 1120.866577,2443.346436 1124.607300,2436.799072 
	C1105.502319,2415.841797 1084.976685,2397.872803 1066.711548,2377.275391 
	C1070.129272,2370.634766 1073.265747,2364.813232 1076.160156,2358.873535 
	C1099.147217,2311.702881 1105.829834,2262.247070 1094.606079,2211.038818 
	C1067.855347,2088.989258 949.322388,2009.347168 823.971375,2037.190552 
	C679.810913,2069.211670 607.013000,2222.691895 666.416199,2351.926514 
	C704.167786,2434.056885 770.235718,2478.349121 861.020325,2483.074463 
	C911.497131,2485.701660 959.004028,2474.952393 1001.114258,2445.314453 
	C1003.185059,2443.856934 1005.631409,2442.933105 1008.400208,2441.503906 
	C1012.209167,2444.998779 1015.693665,2447.990234 1018.945862,2451.216064 
	C1031.248535,2463.419434 1043.415894,2475.759766 1055.773315,2487.906738 
	C1058.891846,2490.972168 1062.527954,2493.510986 1067.727783,2497.765625 
	C1071.717896,2492.812256 1075.069580,2488.651367 1080.430054,2482.494629 
M2751.613281,2393.624756 
	C2778.404541,2356.016846 2790.121826,2313.663086 2790.950684,2267.952637 
	C2791.018066,2264.240479 2789.694092,2260.503174 2788.894287,2256.105469 
	C2776.660400,2256.105469 2765.361328,2256.105469 2754.062012,2256.105469 
	C2742.736328,2256.105469 2731.410400,2256.105469 2720.084717,2256.105469 
	C2709.425049,2256.105469 2698.765381,2256.105469 2688.105713,2256.105469 
	C2676.780029,2256.105469 2665.454102,2256.105469 2654.128418,2256.105469 
	C2642.802490,2256.105469 2631.472656,2255.916748 2620.152100,2256.159180 
	C2609.092773,2256.395996 2597.887939,2255.044189 2587.264404,2257.110107 
	C2584.560303,2278.518066 2584.863525,2319.082764 2587.829102,2334.711426 
	C2598.654541,2336.401367 2609.895752,2335.307861 2621.051758,2335.499268 
	C2632.374023,2335.693359 2643.704346,2335.420410 2655.027832,2335.576660 
	C2666.083008,2335.729248 2677.217529,2334.862549 2690.132324,2336.457031 
	C2688.375977,2341.052979 2687.610596,2344.137207 2686.110840,2346.809570 
	C2673.245117,2369.739502 2654.295410,2385.795166 2630.145508,2395.897949 
	C2610.676514,2404.042236 2590.281738,2405.728027 2569.442139,2405.085693 
	C2510.232178,2403.260498 2473.594482,2364.618652 2460.151367,2320.885986 
	C2448.893066,2284.262451 2448.712402,2247.242188 2460.250732,2210.717041 
	C2471.967773,2173.626709 2495.508057,2146.865234 2533.235352,2134.597900 
	C2563.943359,2124.612549 2594.925781,2124.886719 2625.351074,2135.966797 
	C2652.036133,2145.684570 2672.802490,2162.470215 2684.731201,2188.982666 
	C2686.305176,2192.480713 2688.473145,2195.711426 2690.008057,2198.431152 
	C2720.413086,2198.431152 2749.603516,2198.431152 2779.604736,2198.431152 
	C2779.297363,2195.143555 2779.613525,2192.390625 2778.741943,2190.086914 
	C2754.170166,2125.148682 2710.483154,2080.074951 2643.107666,2059.480713 
	C2613.280029,2050.363525 2582.780029,2049.569092 2552.077148,2051.500000 
	C2446.979004,2058.110107 2386.892090,2133.420654 2368.008545,2199.176270 
	C2356.753906,2238.365723 2354.997314,2278.310791 2364.570557,2317.730469 
	C2382.884277,2393.138672 2428.273438,2445.761230 2502.717285,2470.199463 
	C2545.972168,2484.399170 2590.571777,2484.156494 2634.892334,2473.619385 
	C2682.943604,2462.195068 2720.704346,2435.346436 2751.613281,2393.624756 
M3583.447998,2430.489746 
	C3600.322266,2452.187500 3621.916260,2467.097412 3648.254883,2474.870361 
	C3670.325195,2481.383545 3693.009521,2482.003174 3715.593018,2479.174805 
	C3741.313721,2475.953613 3764.383301,2466.322998 3782.601074,2446.964600 
	C3784.663818,2444.772461 3786.041016,2441.179199 3790.992920,2441.795410 
	C3793.857910,2451.550537 3789.833008,2462.343262 3793.835205,2473.018311 
	C3816.850098,2473.018311 3839.452881,2473.056641 3862.054688,2472.966064 
	C3864.641846,2472.955811 3867.226318,2472.225830 3869.510254,2471.875977 
	C3870.213867,2470.137451 3871.109131,2468.958252 3871.108887,2467.778809 
	C3871.076660,2320.610107 3870.978516,2173.441650 3870.865479,2026.273071 
	C3870.864990,2025.622314 3870.732422,2024.895142 3870.417236,2024.343262 
	C3870.103760,2023.794922 3869.481689,2023.422974 3868.994629,2022.973755 
	C3848.833740,2019.912354 3799.649414,2020.397095 3784.914551,2024.161865 
	C3784.914551,2030.325195 3784.914307,2036.872437 3784.914307,2043.419556 
	C3784.914307,2050.079590 3784.914307,2056.739502 3784.914307,2063.399414 
	C3784.914307,2070.059326 3784.914307,2076.719238 3784.914307,2083.379150 
	C3784.914307,2090.039062 3784.914307,2096.698975 3784.914307,2103.358887 
	C3784.914307,2110.684814 3784.914307,2118.010742 3784.914307,2125.336670 
	C3784.914307,2131.996582 3784.914551,2138.656738 3784.914307,2145.316650 
	C3784.914307,2151.976562 3785.044189,2158.639648 3784.876221,2165.295410 
	C3784.715820,2171.650146 3785.785645,2178.200195 3783.119385,2186.686279 
	C3779.681396,2183.801514 3777.851318,2182.339355 3776.101807,2180.786865 
	C3753.747803,2160.954590 3727.512451,2151.542480 3697.756592,2150.563232 
	C3636.853516,2148.559570 3592.868408,2174.874756 3565.348389,2228.926025 
	C3561.449219,2236.584229 3558.569824,2244.821533 3555.816162,2252.992188 
	C3547.610352,2277.339111 3546.336914,2302.520996 3547.281494,2327.955811 
	C3548.652344,2364.872803 3559.265137,2398.583496 3583.447998,2430.489746 
M1866.592285,2228.689453 
	C1841.600220,2274.525146 1838.721680,2322.995117 1853.520752,2371.857178 
	C1869.225708,2423.710938 1904.028687,2458.793945 1956.528076,2474.280762 
	C1987.122681,2483.305908 2018.595459,2483.598877 2049.255127,2474.849854 
	C2096.819580,2461.276123 2131.176758,2431.910645 2149.610107,2385.270508 
	C2151.007568,2381.734619 2151.390625,2377.797607 2152.265625,2373.958740 
	C2135.245361,2371.750488 2086.687744,2371.702393 2067.426025,2373.852295 
	C2058.685059,2390.107666 2044.742310,2400.255371 2026.087646,2404.517822 
	C2007.933716,2408.666016 1990.423706,2407.182373 1973.192749,2400.694092 
	C1958.913696,2395.317383 1947.906860,2385.790283 1940.822632,2372.426514 
	C1935.718384,2362.797607 1930.244263,2352.824463 1932.798950,2340.215088 
	C1940.424805,2340.215088 1947.051758,2340.215088 1953.678833,2340.215088 
	C2016.265259,2340.215088 2078.851807,2340.270264 2141.437744,2340.122314 
	C2147.156982,2340.108887 2153.377930,2341.992432 2159.438965,2337.005127 
	C2160.842773,2314.986572 2161.622070,2292.444824 2155.778320,2270.316650 
	C2139.652832,2209.256836 2102.612305,2168.611084 2040.009277,2153.840088 
	C2022.421997,2149.690430 2004.351562,2149.901123 1986.345581,2151.291260 
	C1951.163086,2154.007568 1920.425049,2167.145020 1895.459106,2192.032227 
	C1885.188477,2202.270752 1877.081299,2214.679199 1866.592285,2228.689453 
M2831.325195,2281.362061 
	C2826.224854,2305.859131 2826.370361,2330.495361 2832.259766,2354.644043 
	C2846.556152,2413.264648 2881.386963,2453.774658 2939.519287,2472.930908 
	C2962.037842,2480.351562 2985.226807,2481.201172 3008.591064,2480.071289 
	C3082.728516,2476.485840 3143.629395,2422.411133 3156.635498,2349.305908 
	C3160.894287,2325.368164 3161.346436,2301.519043 3155.875488,2277.951904 
	C3142.021240,2218.274658 3106.735840,2177.201172 3048.028320,2157.792480 
	C3023.667236,2149.738525 2998.314697,2149.339355 2972.937500,2151.504395 
	C2933.531250,2154.866211 2899.941895,2170.526367 2872.750000,2199.419434 
	C2851.742920,2221.741211 2837.886475,2247.835693 2831.325195,2281.362061 
M3278.023438,2464.132812 
	C3305.658447,2477.573242 3335.013916,2481.325439 3365.396729,2480.332275 
	C3440.818359,2477.866943 3500.919189,2427.720947 3517.133789,2353.729492 
	C3521.469971,2333.941406 3521.742920,2314.017334 3519.825684,2294.133301 
	C3513.557129,2229.131592 3467.796631,2175.074219 3409.842285,2157.807861 
	C3384.544434,2150.271240 3358.749512,2149.229980 3332.720215,2151.656982 
	C3295.580811,2155.119873 3263.302246,2169.497803 3237.190674,2196.350098 
	C3193.032715,2241.760254 3181.225586,2296.494141 3194.315186,2356.857666 
	C3204.607422,2404.322510 3232.820557,2439.377197 3278.023438,2464.132812 
M1333.186890,2396.645752 
	C1317.697144,2404.744629 1301.312866,2405.565430 1284.624634,2402.002686 
	C1265.303955,2397.877930 1252.393555,2386.195557 1247.870972,2366.886475 
	C1245.470337,2356.636963 1244.276245,2345.883301 1244.206787,2335.346436 
	C1243.851685,2281.408936 1244.074219,2227.467773 1243.981934,2173.528076 
	C1243.973389,2168.477295 1243.175537,2163.427979 1242.770142,2158.683838 
	C1220.780640,2156.333008 1175.356812,2156.625488 1159.286987,2159.212646 
	C1158.992920,2163.510010 1158.416748,2168.047607 1158.411987,2172.585449 
	C1158.353516,2227.856934 1158.277954,2283.128906 1158.466064,2338.399902 
	C1158.504517,2349.701904 1158.785889,2361.118164 1160.375244,2372.279541 
	C1166.531006,2415.509766 1183.083130,2457.273682 1245.169312,2473.664307 
	C1284.531250,2484.055908 1324.290405,2483.680908 1363.493286,2472.188477 
	C1404.860229,2460.061523 1430.329834,2432.313965 1439.521240,2390.381104 
	C1442.633667,2376.181396 1444.387695,2361.413330 1444.538086,2346.881836 
	C1445.158447,2286.955566 1444.950928,2227.020264 1444.928833,2167.088379 
	C1444.927734,2163.997803 1443.826416,2160.907715 1443.283325,2158.058350 
	C1412.084473,2155.988770 1375.045410,2156.585205 1359.949097,2159.518555 
	C1359.782715,2165.787598 1359.463745,2172.331787 1359.458252,2178.876221 
	C1359.416260,2229.486328 1359.442383,2280.096436 1359.423950,2330.706543 
	C1359.421753,2336.697998 1359.715332,2342.733154 1359.119995,2348.672852 
	C1357.279175,2367.038574 1352.546509,2384.105469 1333.186890,2396.645752 
M1694.977539,2369.997559 
	C1695.099609,2403.280762 1695.216064,2436.564209 1695.394653,2469.847168 
	C1695.397339,2470.349365 1696.162720,2470.847168 1696.572266,2471.347168 
	C1716.758545,2473.919189 1764.701782,2473.660400 1780.373535,2470.685303 
	C1780.373535,2464.305420 1780.373535,2457.704590 1780.373535,2451.103760 
	C1780.373657,2381.863281 1780.349365,2312.622803 1780.418701,2243.382324 
	C1780.424438,2237.653809 1781.065430,2231.925781 1781.447754,2225.594727 
	C1797.313232,2225.170654 1811.795776,2224.783447 1826.102417,2224.401123 
	C1828.780640,2194.054443 1828.072510,2170.432617 1823.906006,2157.139648 
	C1817.040771,2157.139648 1809.786865,2157.326660 1802.547241,2157.086182 
	C1795.491699,2156.852051 1788.179199,2158.248535 1780.368896,2155.183350 
	C1780.368896,2133.200439 1780.461060,2111.991211 1780.281250,2090.783936 
	C1780.250000,2087.085938 1779.072021,2083.397217 1778.428589,2079.732910 
	C1751.345459,2079.732910 1725.398926,2079.727783 1699.452393,2079.762451 
	C1698.829712,2079.763184 1698.170776,2080.139893 1697.596069,2080.461670 
	C1697.072632,2080.754639 1696.640991,2081.212158 1694.884644,2082.643799 
	C1694.884644,2106.031006 1694.884644,2130.497314 1694.884644,2154.980713 
	C1680.482544,2160.113525 1665.977905,2153.929199 1652.639893,2159.377197 
	C1652.639893,2181.083008 1652.639893,2202.271240 1652.639893,2224.911133 
	C1663.206909,2224.956055 1673.122559,2224.807861 1683.022217,2225.138916 
	C1686.718750,2225.262451 1690.377930,2226.503174 1694.977539,2227.418457 
	C1694.977539,2274.269775 1694.977539,2320.133545 1694.977539,2369.997559 
M1520.079590,2302.000000 
	C1520.079590,2358.492432 1520.079590,2414.984863 1520.079590,2471.260254 
	C1540.034790,2473.981689 1590.195679,2473.683350 1605.310913,2470.852295 
	C1605.573853,2468.483887 1606.103882,2465.931396 1606.104980,2463.378906 
	C1606.148193,2364.813232 1606.158813,2266.247314 1606.072266,2167.681641 
	C1606.069458,2164.530762 1605.002319,2161.381104 1604.224121,2157.086426 
	C1579.652466,2157.086426 1555.765625,2156.998047 1531.880737,2157.178711 
	C1528.170410,2157.206787 1524.469238,2158.464844 1520.079590,2159.281250 
	C1520.079590,2206.153564 1520.079590,2252.076904 1520.079590,2302.000000 
M1512.872681,2080.982910 
	C1514.124634,2084.067139 1515.071289,2087.321289 1516.676147,2090.209473 
	C1531.874634,2117.558350 1569.129395,2125.762451 1594.551636,2107.386719 
	C1602.872314,2101.372314 1608.754761,2093.508301 1612.105225,2083.723877 
	C1624.524658,2047.456055 1598.285278,2006.310303 1552.161621,2014.771118 
	C1528.848022,2019.047485 1513.002563,2036.650635 1511.610962,2060.085693 
	C1511.257812,2066.032471 1511.993896,2072.043701 1512.872681,2080.982910 
z"/>
<path fill="#040404" opacity="1.000000" stroke="none" 
	d="
M1079.425537,2483.492676 
	C1075.069580,2488.651367 1071.717896,2492.812256 1067.727783,2497.765625 
	C1062.527954,2493.510986 1058.891846,2490.972168 1055.773315,2487.906738 
	C1043.415894,2475.759766 1031.248535,2463.419434 1018.945862,2451.216064 
	C1015.693665,2447.990234 1012.209167,2444.998779 1008.400208,2441.503906 
	C1005.631409,2442.933105 1003.185059,2443.856934 1001.114258,2445.314453 
	C959.004028,2474.952393 911.497131,2485.701660 861.020325,2483.074463 
	C770.235718,2478.349121 704.167786,2434.056885 666.416199,2351.926514 
	C607.013000,2222.691895 679.810913,2069.211670 823.971375,2037.190552 
	C949.322388,2009.347168 1067.855347,2088.989258 1094.606079,2211.038818 
	C1105.829834,2262.247070 1099.147217,2311.702881 1076.160156,2358.873535 
	C1073.265747,2364.813232 1070.129272,2370.634766 1066.711548,2377.275391 
	C1084.976685,2397.872803 1105.502319,2415.841797 1124.607300,2436.799072 
	C1120.866577,2443.346436 1114.908081,2447.621094 1110.085571,2452.770996 
	C1105.532471,2457.633301 1100.692383,2462.226807 1095.979858,2466.939697 
	C1090.795776,2472.124023 1085.613159,2477.309570 1079.425537,2483.492676 
M751.838928,2313.270996 
	C769.472412,2362.165771 803.496704,2391.764404 855.383362,2398.206299 
	C933.685730,2407.927490 983.367432,2359.344482 996.786194,2305.462402 
	C1002.482361,2282.589844 1003.452576,2259.694092 1001.047974,2236.153564 
	C996.010498,2186.836914 960.609070,2127.571533 884.740479,2121.696045 
	C811.603149,2116.032227 765.853760,2160.154541 751.193359,2209.781250 
	C741.310425,2243.235596 741.209167,2276.678223 751.838928,2313.270996 
z"/>
<path fill="#050505" opacity="1.000000" stroke="none" 
	d="
M2750.742676,2394.756348 
	C2720.704346,2435.346436 2682.943604,2462.195068 2634.892334,2473.619385 
	C2590.571777,2484.156494 2545.972168,2484.399170 2502.717285,2470.199463 
	C2428.273438,2445.761230 2382.884277,2393.138672 2364.570557,2317.730469 
	C2354.997314,2278.310791 2356.753906,2238.365723 2368.008545,2199.176270 
	C2386.892090,2133.420654 2446.979004,2058.110107 2552.077148,2051.500000 
	C2582.780029,2049.569092 2613.280029,2050.363525 2643.107666,2059.480713 
	C2710.483154,2080.074951 2754.170166,2125.148682 2778.741943,2190.086914 
	C2779.613525,2192.390625 2779.297363,2195.143555 2779.604736,2198.431152 
	C2749.603516,2198.431152 2720.413086,2198.431152 2690.008057,2198.431152 
	C2688.473145,2195.711426 2686.305176,2192.480713 2684.731201,2188.982666 
	C2672.802490,2162.470215 2652.036133,2145.684570 2625.351074,2135.966797 
	C2594.925781,2124.886719 2563.943359,2124.612549 2533.235352,2134.597900 
	C2495.508057,2146.865234 2471.967773,2173.626709 2460.250732,2210.717041 
	C2448.712402,2247.242188 2448.893066,2284.262451 2460.151367,2320.885986 
	C2473.594482,2364.618652 2510.232178,2403.260498 2569.442139,2405.085693 
	C2590.281738,2405.728027 2610.676514,2404.042236 2630.145508,2395.897949 
	C2654.295410,2385.795166 2673.245117,2369.739502 2686.110840,2346.809570 
	C2687.610596,2344.137207 2688.375977,2341.052979 2690.132324,2336.457031 
	C2677.217529,2334.862549 2666.083008,2335.729248 2655.027832,2335.576660 
	C2643.704346,2335.420410 2632.374023,2335.693359 2621.051758,2335.499268 
	C2609.895752,2335.307861 2598.654541,2336.401367 2587.829102,2334.711426 
	C2584.863525,2319.082764 2584.560303,2278.518066 2587.264404,2257.110107 
	C2597.887939,2255.044189 2609.092773,2256.395996 2620.152100,2256.159180 
	C2631.472656,2255.916748 2642.802490,2256.105469 2654.128418,2256.105469 
	C2665.454102,2256.105469 2676.780029,2256.105469 2688.105713,2256.105469 
	C2698.765381,2256.105469 2709.425049,2256.105469 2720.084717,2256.105469 
	C2731.410400,2256.105469 2742.736328,2256.105469 2754.062012,2256.105469 
	C2765.361328,2256.105469 2776.660400,2256.105469 2788.894287,2256.105469 
	C2789.694092,2260.503174 2791.018066,2264.240479 2790.950684,2267.952637 
	C2790.121826,2313.663086 2778.404541,2356.016846 2750.742676,2394.756348 
z"/>
<path fill="#050505" opacity="1.000000" stroke="none" 
	d="
M3582.543945,2429.388428 
	C3559.265137,2398.583496 3548.652344,2364.872803 3547.281494,2327.955811 
	C3546.336914,2302.520996 3547.610352,2277.339111 3555.816162,2252.992188 
	C3558.569824,2244.821533 3561.449219,2236.584229 3565.348389,2228.926025 
	C3592.868408,2174.874756 3636.853516,2148.559570 3697.756592,2150.563232 
	C3727.512451,2151.542480 3753.747803,2160.954590 3776.101807,2180.786865 
	C3777.851318,2182.339355 3779.681396,2183.801514 3783.119385,2186.686279 
	C3785.785645,2178.200195 3784.715820,2171.650146 3784.876221,2165.295410 
	C3785.044189,2158.639648 3784.914307,2151.976562 3784.914307,2145.316650 
	C3784.914551,2138.656738 3784.914307,2131.996582 3784.914307,2125.336670 
	C3784.914307,2118.010742 3784.914307,2110.684814 3784.914307,2103.358887 
	C3784.914307,2096.698975 3784.914307,2090.039062 3784.914307,2083.379150 
	C3784.914307,2076.719238 3784.914307,2070.059326 3784.914307,2063.399414 
	C3784.914307,2056.739502 3784.914307,2050.079590 3784.914307,2043.419556 
	C3784.914307,2036.872437 3784.914551,2030.325195 3784.914551,2024.161865 
	C3799.649414,2020.397095 3848.833740,2019.912354 3868.994629,2022.973755 
	C3869.481689,2023.422974 3870.103760,2023.794922 3870.417236,2024.343262 
	C3870.732422,2024.895142 3870.864990,2025.622314 3870.865479,2026.273071 
	C3870.978516,2173.441650 3871.076660,2320.610107 3871.108887,2467.778809 
	C3871.109131,2468.958252 3870.213867,2470.137451 3869.510254,2471.875977 
	C3867.226318,2472.225830 3864.641846,2472.955811 3862.054688,2472.966064 
	C3839.452881,2473.056641 3816.850098,2473.018311 3793.835205,2473.018311 
	C3789.833008,2462.343262 3793.857910,2451.550537 3790.992920,2441.795410 
	C3786.041016,2441.179199 3784.663818,2444.772461 3782.601074,2446.964600 
	C3764.383301,2466.322998 3741.313721,2475.953613 3715.593018,2479.174805 
	C3693.009521,2482.003174 3670.325195,2481.383545 3648.254883,2474.870361 
	C3621.916260,2467.097412 3600.322266,2452.187500 3582.543945,2429.388428 
M3776.113037,2365.206055 
	C3781.772949,2355.224854 3784.943604,2344.323242 3786.452148,2333.119629 
	C3790.312012,2304.458252 3785.961426,2277.625977 3768.277832,2253.649902 
	C3741.146240,2216.864990 3679.442871,2216.634521 3651.969727,2253.540771 
	C3641.733398,2267.291748 3635.794678,2282.549805 3633.549316,2299.235596 
	C3629.975586,2325.792480 3634.173096,2350.890869 3649.252441,2373.616699 
	C3676.823975,2415.168945 3739.695801,2413.876953 3766.619629,2379.236816 
	C3769.471436,2375.567871 3772.030762,2371.671387 3776.113037,2365.206055 
z"/>
<path fill="#040404" opacity="1.000000" stroke="none" 
	d="
M1867.291260,2227.395020 
	C1877.081299,2214.679199 1885.188477,2202.270752 1895.459106,2192.032227 
	C1920.425049,2167.145020 1951.163086,2154.007568 1986.345581,2151.291260 
	C2004.351562,2149.901123 2022.421997,2149.690430 2040.009277,2153.840088 
	C2102.612305,2168.611084 2139.652832,2209.256836 2155.778320,2270.316650 
	C2161.622070,2292.444824 2160.842773,2314.986572 2159.438965,2337.005127 
	C2153.377930,2341.992432 2147.156982,2340.108887 2141.437744,2340.122314 
	C2078.851807,2340.270264 2016.265259,2340.215088 1953.678833,2340.215088 
	C1947.051758,2340.215088 1940.424805,2340.215088 1932.798950,2340.215088 
	C1930.244263,2352.824463 1935.718384,2362.797607 1940.822632,2372.426514 
	C1947.906860,2385.790283 1958.913696,2395.317383 1973.192749,2400.694092 
	C1990.423706,2407.182373 2007.933716,2408.666016 2026.087646,2404.517822 
	C2044.742310,2400.255371 2058.685059,2390.107666 2067.426025,2373.852295 
	C2086.687744,2371.702393 2135.245361,2371.750488 2152.265625,2373.958740 
	C2151.390625,2377.797607 2151.007568,2381.734619 2149.610107,2385.270508 
	C2131.176758,2431.910645 2096.819580,2461.276123 2049.255127,2474.849854 
	C2018.595459,2483.598877 1987.122681,2483.305908 1956.528076,2474.280762 
	C1904.028687,2458.793945 1869.225708,2423.710938 1853.520752,2371.857178 
	C1838.721680,2322.995117 1841.600220,2274.525146 1867.291260,2227.395020 
M2054.951904,2239.009277 
	C2031.489258,2217.010742 2003.943604,2214.890137 1975.073975,2224.243408 
	C1951.445923,2231.898926 1936.016724,2253.191650 1934.029419,2277.600098 
	C1935.870850,2277.970215 1937.744141,2278.673584 1939.618042,2278.675537 
	C1982.819458,2278.720947 2026.020752,2278.693115 2069.222168,2278.636963 
	C2069.819092,2278.636230 2070.462891,2278.158936 2070.998779,2277.781738 
	C2071.502441,2277.427246 2071.892334,2276.910400 2073.332031,2275.452637 
	C2072.228516,2262.507080 2065.617676,2251.373779 2054.951904,2239.009277 
z"/>
<path fill="#040404" opacity="1.000000" stroke="none" 
	d="
M2831.573730,2279.664551 
	C2837.886475,2247.835693 2851.742920,2221.741211 2872.750000,2199.419434 
	C2899.941895,2170.526367 2933.531250,2154.866211 2972.937500,2151.504395 
	C2998.314697,2149.339355 3023.667236,2149.738525 3048.028320,2157.792480 
	C3106.735840,2177.201172 3142.021240,2218.274658 3155.875488,2277.951904 
	C3161.346436,2301.519043 3160.894287,2325.368164 3156.635498,2349.305908 
	C3143.629395,2422.411133 3082.728516,2476.485840 3008.591064,2480.071289 
	C2985.226807,2481.201172 2962.037842,2480.351562 2939.519287,2472.930908 
	C2881.386963,2453.774658 2846.556152,2413.264648 2832.259766,2354.644043 
	C2826.370361,2330.495361 2826.224854,2305.859131 2831.573730,2279.664551 
M2955.418701,2395.742188 
	C2960.344727,2397.718750 2965.122559,2400.271973 2970.219727,2401.582764 
	C3024.429443,2415.524658 3059.855225,2383.807129 3069.341797,2348.273682 
	C3075.125977,2326.606934 3075.507324,2304.741699 3069.412109,2283.207031 
	C3059.119385,2246.841797 3029.261475,2224.931641 2992.446289,2225.788574 
	C2955.458008,2226.649658 2926.225098,2249.738525 2917.344727,2285.895508 
	C2914.002930,2299.501465 2913.490234,2313.481934 2914.661621,2327.571777 
	C2917.010742,2355.824951 2928.483398,2378.634277 2955.418701,2395.742188 
z"/>
<path fill="#040404" opacity="1.000000" stroke="none" 
	d="
M3276.666748,2463.512695 
	C3232.820557,2439.377197 3204.607422,2404.322510 3194.315186,2356.857666 
	C3181.225586,2296.494141 3193.032715,2241.760254 3237.190674,2196.350098 
	C3263.302246,2169.497803 3295.580811,2155.119873 3332.720215,2151.656982 
	C3358.749512,2149.229980 3384.544434,2150.271240 3409.842285,2157.807861 
	C3467.796631,2175.074219 3513.557129,2229.131592 3519.825684,2294.133301 
	C3521.742920,2314.017334 3521.469971,2333.941406 3517.133789,2353.729492 
	C3500.919189,2427.720947 3440.818359,2477.866943 3365.396729,2480.332275 
	C3335.013916,2481.325439 3305.658447,2477.573242 3276.666748,2463.512695 
M3347.126953,2404.442383 
	C3351.117920,2404.508789 3355.116699,2404.767334 3359.098877,2404.611084 
	C3394.531494,2403.219238 3422.452881,2380.872070 3431.453857,2346.621826 
	C3436.985840,2325.571289 3436.946533,2304.429199 3431.246094,2283.451172 
	C3421.853516,2248.885010 3392.232910,2226.258789 3356.261230,2225.790527 
	C3320.172363,2225.320557 3290.526855,2247.056152 3280.003418,2281.631836 
	C3274.252441,2300.526855 3273.878174,2319.854004 3277.432861,2338.944580 
	C3284.173340,2375.142822 3306.907227,2396.946289 3347.126953,2404.442383 
z"/>
<path fill="#040404" opacity="1.000000" stroke="none" 
	d="
M1334.577515,2395.922852 
	C1352.546509,2384.105469 1357.279175,2367.038574 1359.119995,2348.672852 
	C1359.715332,2342.733154 1359.421753,2336.697998 1359.423950,2330.706543 
	C1359.442383,2280.096436 1359.416260,2229.486328 1359.458252,2178.876221 
	C1359.463745,2172.331787 1359.782715,2165.787598 1359.949097,2159.518555 
	C1375.045410,2156.585205 1412.084473,2155.988770 1443.283325,2158.058350 
	C1443.826416,2160.907715 1444.927734,2163.997803 1444.928833,2167.088379 
	C1444.950928,2227.020264 1445.158447,2286.955566 1444.538086,2346.881836 
	C1444.387695,2361.413330 1442.633667,2376.181396 1439.521240,2390.381104 
	C1430.329834,2432.313965 1404.860229,2460.061523 1363.493286,2472.188477 
	C1324.290405,2483.680908 1284.531250,2484.055908 1245.169312,2473.664307 
	C1183.083130,2457.273682 1166.531006,2415.509766 1160.375244,2372.279541 
	C1158.785889,2361.118164 1158.504517,2349.701904 1158.466064,2338.399902 
	C1158.277954,2283.128906 1158.353516,2227.856934 1158.411987,2172.585449 
	C1158.416748,2168.047607 1158.992920,2163.510010 1159.286987,2159.212646 
	C1175.356812,2156.625488 1220.780640,2156.333008 1242.770142,2158.683838 
	C1243.175537,2163.427979 1243.973389,2168.477295 1243.981934,2173.528076 
	C1244.074219,2227.467773 1243.851685,2281.408936 1244.206787,2335.346436 
	C1244.276245,2345.883301 1245.470337,2356.636963 1247.870972,2366.886475 
	C1252.393555,2386.195557 1265.303955,2397.877930 1284.624634,2402.002686 
	C1301.312866,2405.565430 1317.697144,2404.744629 1334.577515,2395.922852 
z"/>
<path fill="#040404" opacity="1.000000" stroke="none" 
	d="
M1694.977539,2367.997559 
	C1694.977539,2320.133545 1694.977539,2274.269775 1694.977539,2227.418457 
	C1690.377930,2226.503174 1686.718750,2225.262451 1683.022217,2225.138916 
	C1673.122559,2224.807861 1663.206909,2224.956055 1652.639893,2224.911133 
	C1652.639893,2202.271240 1652.639893,2181.083008 1652.639893,2159.377197 
	C1665.977905,2153.929199 1680.482544,2160.113525 1694.884644,2154.980713 
	C1694.884644,2130.497314 1694.884644,2106.031006 1694.884644,2082.643799 
	C1696.640991,2081.212158 1697.072632,2080.754639 1697.596069,2080.461670 
	C1698.170776,2080.139893 1698.829712,2079.763184 1699.452393,2079.762451 
	C1725.398926,2079.727783 1751.345459,2079.732910 1778.428589,2079.732910 
	C1779.072021,2083.397217 1780.250000,2087.085938 1780.281250,2090.783936 
	C1780.461060,2111.991211 1780.368896,2133.200439 1780.368896,2155.183350 
	C1788.179199,2158.248535 1795.491699,2156.852051 1802.547241,2157.086182 
	C1809.786865,2157.326660 1817.040771,2157.139648 1823.906006,2157.139648 
	C1828.072510,2170.432617 1828.780640,2194.054443 1826.102417,2224.401123 
	C1811.795776,2224.783447 1797.313232,2225.170654 1781.447754,2225.594727 
	C1781.065430,2231.925781 1780.424438,2237.653809 1780.418701,2243.382324 
	C1780.349365,2312.622803 1780.373657,2381.863281 1780.373535,2451.103760 
	C1780.373535,2457.704590 1780.373535,2464.305420 1780.373535,2470.685303 
	C1764.701782,2473.660400 1716.758545,2473.919189 1696.572266,2471.347168 
	C1696.162720,2470.847168 1695.397339,2470.349365 1695.394653,2469.847168 
	C1695.216064,2436.564209 1695.099609,2403.280762 1694.977539,2367.997559 
z"/>
<path fill="#080808" opacity="1.000000" stroke="none" 
	d="
M1520.079590,2300.000000 
	C1520.079590,2252.076904 1520.079590,2206.153564 1520.079590,2159.281250 
	C1524.469238,2158.464844 1528.170410,2157.206787 1531.880737,2157.178711 
	C1555.765625,2156.998047 1579.652466,2157.086426 1604.224121,2157.086426 
	C1605.002319,2161.381104 1606.069458,2164.530762 1606.072266,2167.681641 
	C1606.158813,2266.247314 1606.148193,2364.813232 1606.104980,2463.378906 
	C1606.103882,2465.931396 1605.573853,2468.483887 1605.310913,2470.852295 
	C1590.195679,2473.683350 1540.034790,2473.981689 1520.079590,2471.260254 
	C1520.079590,2414.984863 1520.079590,2358.492432 1520.079590,2300.000000 
z"/>
<path fill="#050505" opacity="1.000000" stroke="none" 
	d="
M1512.551025,2079.504150 
	C1511.993896,2072.043701 1511.257812,2066.032471 1511.610962,2060.085693 
	C1513.002563,2036.650635 1528.848022,2019.047485 1552.161621,2014.771118 
	C1598.285278,2006.310303 1624.524658,2047.456055 1612.105225,2083.723877 
	C1608.754761,2093.508301 1602.872314,2101.372314 1594.551636,2107.386719 
	C1569.129395,2125.762451 1531.874634,2117.558350 1516.676147,2090.209473 
	C1515.071289,2087.321289 1514.124634,2084.067139 1512.551025,2079.504150 
z"/>
<path fill="#FBFBFB" opacity="1.000000" stroke="none" 
	d="
M751.422119,2311.712891 
	C741.209167,2276.678223 741.310425,2243.235596 751.193359,2209.781250 
	C765.853760,2160.154541 811.603149,2116.032227 884.740479,2121.696045 
	C960.609070,2127.571533 996.010498,2186.836914 1001.047974,2236.153564 
	C1003.452576,2259.694092 1002.482361,2282.589844 996.786194,2305.462402 
	C983.367432,2359.344482 933.685730,2407.927490 855.383362,2398.206299 
	C803.496704,2391.764404 769.472412,2362.165771 751.422119,2311.712891 
z"/>
<path fill="#FBFBFB" opacity="1.000000" stroke="none" 
	d="
M3775.419434,2366.543213 
	C3772.030762,2371.671387 3769.471436,2375.567871 3766.619629,2379.236816 
	C3739.695801,2413.876953 3676.823975,2415.168945 3649.252441,2373.616699 
	C3634.173096,2350.890869 3629.975586,2325.792480 3633.549316,2299.235596 
	C3635.794678,2282.549805 3641.733398,2267.291748 3651.969727,2253.540771 
	C3679.442871,2216.634521 3741.146240,2216.864990 3768.277832,2253.649902 
	C3785.961426,2277.625977 3790.312012,2304.458252 3786.452148,2333.119629 
	C3784.943604,2344.323242 3781.772949,2355.224854 3775.419434,2366.543213 
z"/>
<path fill="#FBFBFB" opacity="1.000000" stroke="none" 
	d="
M2055.937012,2240.080078 
	C2065.617676,2251.373779 2072.228516,2262.507080 2073.332031,2275.452637 
	C2071.892334,2276.910400 2071.502441,2277.427246 2070.998779,2277.781738 
	C2070.462891,2278.158936 2069.819092,2278.636230 2069.222168,2278.636963 
	C2026.020752,2278.693115 1982.819458,2278.720947 1939.618042,2278.675537 
	C1937.744141,2278.673584 1935.870850,2277.970215 1934.029419,2277.600098 
	C1936.016724,2253.191650 1951.445923,2231.898926 1975.073975,2224.243408 
	C2003.943604,2214.890137 2031.489258,2217.010742 2055.937012,2240.080078 
z"/>
<path fill="#FBFBFB" opacity="1.000000" stroke="none" 
	d="
M2954.086426,2394.996582 
	C2928.483398,2378.634277 2917.010742,2355.824951 2914.661621,2327.571777 
	C2913.490234,2313.481934 2914.002930,2299.501465 2917.344727,2285.895508 
	C2926.225098,2249.738525 2955.458008,2226.649658 2992.446289,2225.788574 
	C3029.261475,2224.931641 3059.119385,2246.841797 3069.412109,2283.207031 
	C3075.507324,2304.741699 3075.125977,2326.606934 3069.341797,2348.273682 
	C3059.855225,2383.807129 3024.429443,2415.524658 2970.219727,2401.582764 
	C2965.122559,2400.271973 2960.344727,2397.718750 2954.086426,2394.996582 
z"/>
<path fill="#FBFBFB" opacity="1.000000" stroke="none" 
	d="
M3345.384033,2404.302246 
	C3306.907227,2396.946289 3284.173340,2375.142822 3277.432861,2338.944580 
	C3273.878174,2319.854004 3274.252441,2300.526855 3280.003418,2281.631836 
	C3290.526855,2247.056152 3320.172363,2225.320557 3356.261230,2225.790527 
	C3392.232910,2226.258789 3421.853516,2248.885010 3431.246094,2283.451172 
	C3436.946533,2304.429199 3436.985840,2325.571289 3431.453857,2346.621826 
	C3422.452881,2380.872070 3394.531494,2403.219238 3359.098877,2404.611084 
	C3355.116699,2404.767334 3351.117920,2404.508789 3345.384033,2404.302246 
z"/>
</svg>