<svg version="1.1" id="Layer_1" xmlns="http://www.w3.org/2000/svg" xmlns:xlink="http://www.w3.org/1999/xlink" x="0px" y="0px"
	 width="100%" viewBox="0 0 4500 4500" enable-background="new 0 0 4500 4500" xml:space="preserve">
<path fill="#FFFFFF" opacity="1.000000" stroke="none" 
	d="
M2948.000000,4504.000000 
	C1965.333374,4504.000000 984.666687,4504.000000 4.000000,4504.000000 
	C4.000000,3004.000000 4.000000,1504.000000 4.000000,4.000001 
	C1504.000000,4.000000 3004.000000,4.000000 4504.000000,4.000000 
	C4504.000000,1504.000000 4504.000000,3004.000000 4504.000000,4504.000000 
	C3986.000000,4504.000000 3468.000000,4504.000000 2948.000000,4504.000000 
M2634.000000,1030.887939 
	C2324.067139,1030.888062 2014.134399,1030.889160 1704.201660,1030.885132 
	C1685.527344,1030.884888 1666.948486,1031.503418 1648.535034,1035.324463 
	C1556.931396,1054.333496 1490.510254,1105.948486 1449.252441,1189.677246 
	C1429.432739,1229.899658 1422.776489,1272.992798 1422.800415,1317.621704 
	C1422.995605,1682.877319 1422.880859,2048.133057 1422.988281,2413.388672 
	C1422.994263,2434.013184 1423.743286,2454.571777 1427.500122,2475.064697 
	C1452.357422,2610.660400 1572.165161,2701.177002 1695.111572,2701.145508 
	C2070.364990,2701.049561 2445.618652,2701.105957 2820.872070,2701.122070 
	C2838.916748,2701.122803 2856.827148,2699.869873 2874.431152,2695.706299 
	C2964.412109,2674.424561 3029.814941,2622.669434 3069.419922,2538.721436 
	C3088.911865,2497.405762 3094.823242,2453.463867 3094.838135,2408.486328 
	C3094.955322,2057.894287 3094.938721,1707.302246 3094.821045,1356.710205 
	C3094.813232,1333.423950 3094.041748,1310.118286 3092.912109,1286.856201 
	C3091.006104,1247.611084 3079.656738,1210.906860 3061.160889,1176.409912 
	C3009.924561,1080.848755 2910.100098,1029.125000 2815.958984,1030.702881 
	C2756.655029,1031.696777 2697.320801,1030.887573 2634.000000,1030.887939 
M1079.134155,3337.008057 
	C1098.430664,3293.891602 1104.234131,3249.151611 1096.548584,3202.421387 
	C1076.444458,3080.179199 952.850708,2984.819824 811.982178,3022.608643 
	C695.569336,3053.837402 620.527649,3173.943604 652.932190,3298.592041 
	C671.852600,3371.371826 717.328186,3423.283203 787.527405,3451.547363 
	C821.938721,3465.402344 858.279175,3468.621826 895.374146,3465.397949 
	C934.730103,3461.977539 970.849976,3450.295166 1003.227417,3427.458252 
	C1004.731628,3426.397217 1006.660278,3425.937988 1008.760315,3425.040771 
	C1028.770142,3442.493164 1045.437866,3463.201172 1065.699829,3479.781982 
	C1098.244751,3450.386475 1117.374023,3430.302246 1124.270630,3418.252930 
	C1106.043945,3398.367920 1085.588501,3380.350342 1067.324707,3359.916260 
	C1071.114746,3352.569824 1074.437622,3346.129150 1079.134155,3337.008057 
M2585.162109,3308.212891 
	C2585.680420,3311.324463 2586.198486,3314.436279 2586.820557,3318.171631 
	C2593.723145,3318.427734 2599.614746,3318.817627 2605.507324,3318.834961 
	C2630.162109,3318.907959 2654.816895,3318.821777 2679.471191,3318.931641 
	C2682.502197,3318.945068 2686.257324,3317.883545 2688.266846,3322.842285 
	C2683.210205,3337.139160 2673.360596,3348.564453 2661.763916,3358.582764 
	C2635.657959,3381.134033 2604.808838,3389.009277 2570.934082,3387.728271 
	C2520.076904,3385.805176 2480.630371,3357.841553 2463.000977,3309.950195 
	C2448.189209,3269.712646 2448.335449,3228.857910 2462.364502,3188.630615 
	C2474.411621,3154.085938 2497.974609,3129.586914 2533.072510,3117.594971 
	C2555.564209,3109.910156 2579.097412,3108.653564 2602.176514,3112.955811 
	C2640.123779,3120.029297 2670.526611,3138.456543 2686.163086,3175.952637 
	C2686.889648,3177.695312 2688.441650,3179.093506 2689.920898,3181.067627 
	C2718.457764,3181.067627 2747.052246,3181.110840 2775.645264,3180.953125 
	C2777.257080,3180.944092 2778.859863,3179.276855 2781.156250,3177.997070 
	C2761.027100,3120.153076 2725.319092,3076.540527 2669.258057,3051.398926 
	C2627.462646,3032.655273 2583.435791,3028.698242 2538.287109,3035.345703 
	C2455.376953,3047.552246 2400.322266,3094.288818 2371.211182,3171.827148 
	C2354.572998,3216.144287 2353.525391,3262.306396 2366.013916,3307.470459 
	C2387.793945,3386.237549 2437.985352,3438.050781 2518.611084,3457.610107 
	C2556.072510,3466.698242 2593.862061,3466.087646 2631.476807,3457.694336 
	C2665.304199,3450.145752 2695.373047,3435.124268 2720.943604,3411.606445 
	C2764.759766,3371.307373 2787.819092,3321.204834 2790.751953,3261.845459 
	C2791.102295,3254.752930 2793.584961,3247.411865 2789.852783,3240.521484 
	C2772.520508,3237.925293 2680.305176,3237.063721 2598.062500,3238.775635 
	C2594.195312,3238.856201 2590.341797,3239.596680 2585.156006,3240.178711 
	C2585.156006,3262.097900 2585.156006,3283.309326 2585.162109,3308.212891 
M3784.727295,3007.190674 
	C3784.510254,3059.134521 3784.293945,3111.078125 3784.062500,3163.021973 
	C3784.059570,3163.679443 3784.036377,3164.458008 3783.696289,3164.957764 
	C3783.376953,3165.426758 3782.624023,3165.600098 3780.885498,3166.538330 
	C3779.403320,3165.372314 3777.420898,3163.958984 3775.602051,3162.359131 
	C3757.023682,3146.019775 3735.263916,3136.364258 3710.863525,3133.760986 
	C3656.574951,3127.968506 3610.880859,3143.647461 3578.041016,3189.399658 
	C3563.848389,3209.172852 3554.454346,3231.151611 3550.440918,3255.105957 
	C3543.155029,3298.586914 3544.758301,3341.305176 3563.611084,3382.154541 
	C3574.433594,3405.604248 3589.977051,3425.340088 3611.103760,3440.202393 
	C3642.808105,3462.505371 3678.641357,3466.940674 3716.022217,3462.249756 
	C3742.521973,3458.923828 3766.046143,3448.876709 3784.343262,3428.490234 
	C3785.753418,3426.919189 3788.336182,3426.400635 3791.628418,3424.772217 
	C3791.628418,3431.297607 3791.319580,3435.931396 3791.711914,3440.505371 
	C3792.141357,3445.513428 3789.907471,3451.068115 3794.766602,3456.375732 
	C3816.232178,3456.375732 3838.147461,3456.465088 3860.060303,3456.288330 
	C3863.751465,3456.258545 3867.433105,3455.079346 3870.930908,3454.464111 
	C3871.266357,3451.268555 3871.650146,3449.317871 3871.650635,3447.366943 
	C3871.682129,3302.826172 3871.693604,3158.285400 3871.617432,3013.744629 
	C3871.615723,3010.648193 3870.578613,3007.552490 3870.006836,3004.357178 
	C3841.761719,3004.357178 3814.528809,3004.357178 3784.727295,3007.190674 
M2089.993652,3323.723145 
	C2109.302002,3323.721191 2128.611084,3323.818848 2147.917725,3323.630615 
	C2151.641602,3323.593994 2155.354492,3322.438721 2160.378906,3321.574951 
	C2160.378906,3310.097412 2160.351562,3299.510742 2160.383545,3288.924316 
	C2160.595947,3218.447998 2111.552490,3142.652832 2023.307007,3133.323730 
	C1928.302979,3123.280273 1868.266724,3183.878662 1851.308472,3247.404297 
	C1841.605347,3283.752441 1841.944580,3320.108398 1853.187622,3355.645508 
	C1868.073608,3402.698242 1898.593506,3436.585938 1945.428711,3453.807129 
	C1982.881836,3467.578125 2021.324341,3468.121582 2059.001465,3455.093506 
	C2102.829590,3439.938232 2134.069824,3410.617676 2150.721436,3366.772217 
	C2152.002686,3363.398193 2154.865479,3359.579834 2150.693359,3355.490723 
	C2123.252197,3355.490723 2095.478271,3355.490723 2067.414062,3355.490723 
	C2058.938965,3371.343994 2046.480347,3382.030518 2029.290405,3385.697754 
	C2019.669800,3387.749756 2009.552856,3388.956055 1999.763184,3388.467285 
	C1964.745239,3386.718262 1942.697266,3368.771240 1933.316772,3335.518066 
	C1932.289795,3331.877441 1930.817749,3327.977295 1935.229980,3323.723145 
	C1984.885376,3323.723145 2035.441162,3323.723145 2089.993652,3323.723145 
M3499.228516,3384.972412 
	C3519.407227,3350.090332 3525.198730,3312.217529 3519.646729,3273.004883 
	C3510.925049,3211.405762 3478.004883,3166.992920 3419.759277,3143.820801 
	C3382.840088,3129.133545 3344.212646,3128.204834 3305.921875,3138.926758 
	C3248.540527,3154.994385 3212.561279,3193.093506 3195.648682,3249.635498 
	C3187.277344,3277.622070 3186.570801,3306.291992 3192.610107,3334.662598 
	C3203.851807,3387.472900 3233.368164,3426.921875 3282.938965,3449.401123 
	C3322.009277,3467.118164 3363.019287,3468.075195 3404.220215,3457.712646 
	C3445.054443,3447.442627 3475.463379,3422.787842 3499.228516,3384.972412 
M2888.722412,3166.634033 
	C2867.008301,3184.930908 2849.820557,3206.509277 2839.496094,3233.282227 
	C2825.904053,3268.530029 2823.424561,3304.829102 2832.620117,3341.052979 
	C2846.858887,3397.143799 2881.276855,3436.247559 2936.595947,3455.407471 
	C2959.514160,3463.345459 2983.484375,3465.138916 3007.540039,3463.534180 
	C3051.869141,3460.577393 3090.109131,3444.235352 3119.513916,3409.997070 
	C3159.665283,3363.245605 3169.444580,3308.676270 3153.604980,3251.014404 
	C3135.632568,3185.587891 3091.738037,3145.483398 3023.377441,3135.010742 
	C2975.455322,3127.669189 2930.697754,3135.442139 2888.722412,3166.634033 
M1168.057495,3389.532471 
	C1181.273926,3425.646729 1207.625610,3447.024170 1244.101929,3456.630127 
	C1282.891113,3466.845459 1321.858887,3466.836426 1360.544556,3456.318115 
	C1403.632935,3444.602539 1430.060059,3416.605713 1440.233765,3373.001953 
	C1443.744873,3357.953369 1445.142700,3342.761963 1445.189087,3327.451904 
	C1445.366943,3268.833740 1445.285522,3210.215088 1445.194580,3151.596436 
	C1445.188843,3147.879639 1444.280762,3144.164307 1443.826538,3140.707520 
	C1410.675537,3138.195557 1372.969971,3138.943115 1358.737305,3142.538086 
	C1358.737305,3148.832520 1358.737183,3155.444336 1358.737183,3162.056152 
	C1358.737183,3214.679688 1358.901001,3267.303955 1358.591797,3319.925537 
	C1358.533691,3329.824219 1357.809326,3340.039307 1355.257568,3349.534668 
	C1350.198120,3368.362793 1337.834229,3380.520752 1318.153198,3384.343750 
	C1307.627075,3386.388184 1297.216309,3386.666260 1286.540894,3384.625000 
	C1266.048340,3380.706787 1253.028931,3368.782227 1248.025635,3348.906982 
	C1245.618530,3339.345215 1244.581909,3329.209229 1244.523193,3319.323486 
	C1244.198853,3264.703613 1244.402588,3210.080566 1244.307983,3155.458740 
	C1244.299316,3150.413086 1243.466309,3145.368652 1243.037109,3140.558594 
	C1205.468628,3138.149170 1172.789429,3138.836426 1157.910889,3142.390381 
	C1157.685669,3144.696289 1157.218628,3147.260254 1157.216431,3149.824707 
	C1157.169189,3206.444824 1156.634766,3263.072754 1157.433960,3319.681641 
	C1157.751709,3342.192627 1159.036743,3364.961670 1168.057495,3389.532471 
M1694.785156,3447.847900 
	C1695.266846,3450.334717 1695.748535,3452.821533 1696.434937,3456.364502 
	C1710.826782,3456.364502 1724.767212,3456.687988 1738.685547,3456.272705 
	C1752.348633,3455.864990 1766.243652,3458.291992 1780.355713,3454.297119 
	C1780.355713,3446.847168 1780.355713,3440.233154 1780.355713,3433.618896 
	C1780.355957,3364.369385 1780.304321,3295.119629 1780.452393,3225.870361 
	C1780.464600,3220.190186 1778.427124,3213.846436 1784.145508,3208.364746 
	C1790.954346,3208.364746 1798.274902,3208.631348 1805.566650,3208.288574 
	C1812.610596,3207.958008 1820.008667,3209.878662 1826.463745,3206.623047 
	C1828.924927,3177.703369 1828.394775,3153.824951 1825.015625,3140.347656 
	C1810.875854,3138.235107 1796.211792,3141.238281 1780.996582,3138.401123 
	C1779.741211,3124.999023 1780.725342,3112.436523 1780.333130,3099.934570 
	C1779.943970,3087.527832 1781.406250,3074.994385 1779.466675,3062.975830 
	C1760.552368,3060.610596 1713.857544,3060.544922 1695.987427,3062.778809 
	C1692.651245,3087.536133 1696.781006,3112.829346 1693.668579,3137.924561 
	C1679.849243,3142.345703 1665.498535,3136.718018 1651.644287,3141.800049 
	C1651.644287,3153.055664 1651.395508,3163.663574 1651.712891,3174.254395 
	C1652.044067,3185.309326 1650.238525,3196.556885 1653.040771,3207.302490 
	C1667.103760,3210.197266 1680.574829,3206.076660 1693.097534,3209.991943 
	C1693.739624,3211.901367 1694.532471,3213.160645 1694.534424,3214.420898 
	C1694.650024,3290.993896 1694.700562,3367.567139 1694.785156,3447.847900 
M1585.363037,3456.398926 
	C1591.867432,3456.178955 1598.371948,3455.958740 1605.822388,3455.706543 
	C1606.221191,3450.088135 1606.775513,3445.582275 1606.827637,3441.070312 
	C1608.468140,3299.101074 1607.585938,3158.540527 1604.998779,3141.723633 
	C1587.446533,3138.463867 1533.912720,3138.800537 1519.610840,3142.515869 
	C1519.610840,3146.834961 1519.606445,3151.419189 1519.611450,3156.003418 
	C1519.719238,3254.611084 1519.827271,3353.218506 1519.960571,3451.826172 
	C1519.961426,3452.431396 1520.217041,3453.101074 1520.542847,3453.622803 
	C1520.886597,3454.173340 1521.456787,3454.582520 1523.274658,3456.398926 
	C1541.771362,3456.398926 1561.643188,3456.398926 1585.363037,3456.398926 
M1575.547852,3099.115234 
	C1592.019043,3095.104736 1604.723633,3086.155273 1611.153442,3070.131836 
	C1619.517334,3049.288330 1617.106079,3029.352783 1602.228394,3012.363525 
	C1586.925049,2994.888428 1566.616455,2992.730713 1545.560913,2998.634277 
	C1523.541992,3004.808105 1510.544312,3024.481934 1510.743164,3048.677979 
	C1510.988037,3078.464844 1530.629395,3098.716309 1560.306152,3099.696289 
	C1564.284424,3099.827881 1568.274170,3099.607178 1575.547852,3099.115234 
z"/>
<path fill="#F37316" opacity="1.000000" stroke="none" 
	d="
M2636.000000,1030.887695 
	C2697.320801,1030.887573 2756.655029,1031.696777 2815.958984,1030.702881 
	C2910.100098,1029.125000 3009.924561,1080.848755 3061.160889,1176.409912 
	C3079.656738,1210.906860 3091.006104,1247.611084 3092.912109,1286.856201 
	C3094.041748,1310.118286 3094.813232,1333.423950 3094.821045,1356.710205 
	C3094.938721,1707.302246 3094.955322,2057.894287 3094.838135,2408.486328 
	C3094.823242,2453.463867 3088.911865,2497.405762 3069.419922,2538.721436 
	C3029.814941,2622.669434 2964.412109,2674.424561 2874.431152,2695.706299 
	C2856.827148,2699.869873 2838.916748,2701.122803 2820.872070,2701.122070 
	C2445.618652,2701.105957 2070.364990,2701.049561 1695.111572,2701.145508 
	C1572.165161,2701.177002 1452.357422,2610.660400 1427.500122,2475.064697 
	C1423.743286,2454.571777 1422.994263,2434.013184 1422.988281,2413.388672 
	C1422.880859,2048.133057 1422.995605,1682.877319 1422.800415,1317.621704 
	C1422.776489,1272.992798 1429.432739,1229.899658 1449.252441,1189.677246 
	C1490.510254,1105.948486 1556.931396,1054.333496 1648.535034,1035.324463 
	C1666.948486,1031.503418 1685.527344,1030.884888 1704.201660,1030.885132 
	C2014.134399,1030.889160 2324.067139,1030.888062 2636.000000,1030.887695 
M2409.406250,1867.849243 
	C2319.416748,1867.849976 2229.427490,1867.811890 2139.438232,1867.958008 
	C2134.598389,1867.965820 2129.004395,1866.024414 2123.902588,1871.509277 
	C2128.602539,1876.524414 2132.921631,1881.390625 2137.510010,1885.987793 
	C2174.711426,1923.260010 2211.963135,1960.482178 2249.199951,1997.718994 
	C2301.520020,2050.039307 2353.877197,2102.322510 2406.087646,2154.751709 
	C2410.043213,2158.723877 2415.976562,2161.720459 2416.024902,2169.244141 
	C2413.282715,2171.215820 2410.729004,2173.285645 2407.958740,2175.007324 
	C2380.579590,2192.024170 2351.213867,2204.461914 2319.899902,2211.997803 
	C2276.165283,2222.521729 2231.988037,2225.893799 2187.015625,2221.388428 
	C2149.530762,2217.633545 2113.211670,2209.841553 2079.117920,2193.947021 
	C1987.989380,2151.462891 1929.596436,2080.466309 1900.098877,1985.068726 
	C1886.590820,1941.382080 1882.474487,1896.388062 1882.607788,1850.826904 
	C1882.771240,1794.966064 1890.218262,1740.298706 1912.533325,1688.813232 
	C1956.687500,1586.940308 2031.449097,1520.189331 2140.806396,1494.732300 
	C2181.378906,1485.287476 2222.474854,1483.635010 2263.959229,1487.433105 
	C2311.737305,1491.807373 2357.109131,1504.114746 2398.587891,1528.383057 
	C2481.189209,1576.711060 2532.386230,1648.699829 2555.717773,1740.941406 
	C2564.576660,1775.964966 2568.657227,1811.654419 2568.565186,1847.827271 
	C2568.549072,1854.217285 2566.495850,1861.179688 2572.272461,1867.927368 
	C2652.854248,1867.927368 2734.126465,1867.938477 2815.398926,1867.874634 
	C2817.911621,1867.872681 2820.423828,1867.091553 2823.838867,1866.523560 
	C2824.282471,1861.426636 2824.951660,1856.932739 2825.021729,1852.429688 
	C2825.623779,1813.655884 2822.515869,1775.132324 2814.968262,1737.128784 
	C2788.522217,1603.963867 2725.035400,1491.647827 2623.921143,1400.901123 
	C2486.551025,1277.616089 2295.987549,1223.766602 2112.709229,1259.287720 
	C1960.208252,1288.843872 1836.968994,1366.067017 1743.189697,1489.588135 
	C1677.677490,1575.877075 1639.376953,1673.447754 1627.133667,1781.211304 
	C1619.389160,1849.377075 1622.646240,1916.937378 1638.007935,1983.790649 
	C1663.080078,2092.904053 1714.562012,2187.960693 1792.471924,2268.245117 
	C1863.932617,2341.884033 1948.167480,2395.200684 2047.700562,2422.573486 
	C2137.661621,2447.314209 2229.170166,2450.977539 2321.238281,2438.822754 
	C2411.958008,2426.846436 2495.235352,2394.850098 2569.859619,2341.264404 
	C2573.996094,2338.294189 2577.761719,2334.156250 2584.909180,2333.852539 
	C2589.561035,2338.381592 2594.822998,2343.391357 2599.960938,2348.525635 
	C2640.512939,2389.046143 2681.020508,2429.611328 2721.609131,2470.094971 
	C2725.708252,2474.183350 2730.255859,2477.821045 2734.389648,2481.485352 
	C2750.269531,2469.517090 2882.504883,2336.941895 2891.501953,2324.227783 
	C2882.150635,2311.913818 2458.639404,1887.400879 2436.057373,1867.849121 
	C2429.141113,1867.849121 2421.170898,1867.849121 2409.406250,1867.849243 
z"/>
<path fill="#131313" opacity="1.000000" stroke="none" 
	d="
M1078.447388,3338.348145 
	C1074.437622,3346.129150 1071.114746,3352.569824 1067.324707,3359.916260 
	C1085.588501,3380.350342 1106.043945,3398.367920 1124.270630,3418.252930 
	C1117.374023,3430.302246 1098.244751,3450.386475 1065.699829,3479.781982 
	C1045.437866,3463.201172 1028.770142,3442.493164 1008.760315,3425.040771 
	C1006.660278,3425.937988 1004.731628,3426.397217 1003.227417,3427.458252 
	C970.849976,3450.295166 934.730103,3461.977539 895.374146,3465.397949 
	C858.279175,3468.621826 821.938721,3465.402344 787.527405,3451.547363 
	C717.328186,3423.283203 671.852600,3371.371826 652.932190,3298.592041 
	C620.527649,3173.943604 695.569336,3053.837402 811.982178,3022.608643 
	C952.850708,2984.819824 1076.444458,3080.179199 1096.548584,3202.421387 
	C1104.234131,3249.151611 1098.430664,3293.891602 1078.447388,3338.348145 
M998.745605,3279.647949 
	C1001.634888,3259.902344 1002.933838,3240.267578 1000.834045,3220.173828 
	C995.609192,3170.175293 961.563049,3114.482910 891.485046,3105.510498 
	C821.135681,3096.503418 767.499878,3137.496582 751.190186,3194.217285 
	C741.538208,3227.783936 741.233521,3261.349854 751.981018,3294.415771 
	C766.174255,3338.083252 795.581482,3366.589111 840.576965,3377.976074 
	C856.892517,3382.104980 873.538025,3381.861816 890.161865,3380.414551 
	C917.686401,3378.018311 941.386108,3366.995850 961.380371,3348.050537 
	C980.285400,3330.137207 992.042175,3308.151123 998.745605,3279.647949 
z"/>
<path fill="#141414" opacity="1.000000" stroke="none" 
	d="
M2585.159180,3306.366699 
	C2585.156006,3283.309326 2585.156006,3262.097900 2585.156006,3240.178711 
	C2590.341797,3239.596680 2594.195312,3238.856201 2598.062500,3238.775635 
	C2680.305176,3237.063721 2772.520508,3237.925293 2789.852783,3240.521484 
	C2793.584961,3247.411865 2791.102295,3254.752930 2790.751953,3261.845459 
	C2787.819092,3321.204834 2764.759766,3371.307373 2720.943604,3411.606445 
	C2695.373047,3435.124268 2665.304199,3450.145752 2631.476807,3457.694336 
	C2593.862061,3466.087646 2556.072510,3466.698242 2518.611084,3457.610107 
	C2437.985352,3438.050781 2387.793945,3386.237549 2366.013916,3307.470459 
	C2353.525391,3262.306396 2354.572998,3216.144287 2371.211182,3171.827148 
	C2400.322266,3094.288818 2455.376953,3047.552246 2538.287109,3035.345703 
	C2583.435791,3028.698242 2627.462646,3032.655273 2669.258057,3051.398926 
	C2725.319092,3076.540527 2761.027100,3120.153076 2781.156250,3177.997070 
	C2778.859863,3179.276855 2777.257080,3180.944092 2775.645264,3180.953125 
	C2747.052246,3181.110840 2718.457764,3181.067627 2689.920898,3181.067627 
	C2688.441650,3179.093506 2686.889648,3177.695312 2686.163086,3175.952637 
	C2670.526611,3138.456543 2640.123779,3120.029297 2602.176514,3112.955811 
	C2579.097412,3108.653564 2555.564209,3109.910156 2533.072510,3117.594971 
	C2497.974609,3129.586914 2474.411621,3154.085938 2462.364502,3188.630615 
	C2448.335449,3228.857910 2448.189209,3269.712646 2463.000977,3309.950195 
	C2480.630371,3357.841553 2520.076904,3385.805176 2570.934082,3387.728271 
	C2604.808838,3389.009277 2635.657959,3381.134033 2661.763916,3358.582764 
	C2673.360596,3348.564453 2683.210205,3337.139160 2688.266846,3322.842285 
	C2686.257324,3317.883545 2682.502197,3318.945068 2679.471191,3318.931641 
	C2654.816895,3318.821777 2630.162109,3318.907959 2605.507324,3318.834961 
	C2599.614746,3318.817627 2593.723145,3318.427734 2586.820557,3318.171631 
	C2586.198486,3314.436279 2585.680420,3311.324463 2585.159180,3306.366699 
z"/>
<path fill="#141414" opacity="1.000000" stroke="none" 
	d="
M3786.011475,3005.773926 
	C3814.528809,3004.357178 3841.761719,3004.357178 3870.006836,3004.357178 
	C3870.578613,3007.552490 3871.615723,3010.648193 3871.617432,3013.744629 
	C3871.693604,3158.285400 3871.682129,3302.826172 3871.650635,3447.366943 
	C3871.650146,3449.317871 3871.266357,3451.268555 3870.930908,3454.464111 
	C3867.433105,3455.079346 3863.751465,3456.258545 3860.060303,3456.288330 
	C3838.147461,3456.465088 3816.232178,3456.375732 3794.766602,3456.375732 
	C3789.907471,3451.068115 3792.141357,3445.513428 3791.711914,3440.505371 
	C3791.319580,3435.931396 3791.628418,3431.297607 3791.628418,3424.772217 
	C3788.336182,3426.400635 3785.753418,3426.919189 3784.343262,3428.490234 
	C3766.046143,3448.876709 3742.521973,3458.923828 3716.022217,3462.249756 
	C3678.641357,3466.940674 3642.808105,3462.505371 3611.103760,3440.202393 
	C3589.977051,3425.340088 3574.433594,3405.604248 3563.611084,3382.154541 
	C3544.758301,3341.305176 3543.155029,3298.586914 3550.440918,3255.105957 
	C3554.454346,3231.151611 3563.848389,3209.172852 3578.041016,3189.399658 
	C3610.880859,3143.647461 3656.574951,3127.968506 3710.863525,3133.760986 
	C3735.263916,3136.364258 3757.023682,3146.019775 3775.602051,3162.359131 
	C3777.420898,3163.958984 3779.403320,3165.372314 3780.885498,3166.538330 
	C3782.624023,3165.600098 3783.376953,3165.426758 3783.696289,3164.957764 
	C3784.036377,3164.458008 3784.059570,3163.679443 3784.062500,3163.021973 
	C3784.293945,3111.078125 3784.510254,3059.134521 3786.011475,3005.773926 
M3787.437012,3304.985596 
	C3788.397461,3285.289307 3784.908203,3266.462646 3775.690430,3248.965820 
	C3765.952148,3230.481934 3751.504639,3217.305420 3730.959961,3211.795654 
	C3687.786865,3200.218018 3647.619141,3224.663574 3636.456055,3269.072510 
	C3631.649414,3288.192627 3631.151367,3307.405518 3636.333984,3326.395752 
	C3643.747803,3353.561279 3658.647705,3374.809570 3686.687012,3383.853760 
	C3722.519043,3395.411377 3762.730713,3381.033691 3779.523438,3339.360840 
	C3783.447021,3329.624268 3784.607666,3318.774414 3787.437012,3304.985596 
z"/>
<path fill="#141414" opacity="1.000000" stroke="none" 
	d="
M2087.995117,3323.723145 
	C2035.441162,3323.723145 1984.885376,3323.723145 1935.229980,3323.723145 
	C1930.817749,3327.977295 1932.289795,3331.877441 1933.316772,3335.518066 
	C1942.697266,3368.771240 1964.745239,3386.718262 1999.763184,3388.467285 
	C2009.552856,3388.956055 2019.669800,3387.749756 2029.290405,3385.697754 
	C2046.480347,3382.030518 2058.938965,3371.343994 2067.414062,3355.490723 
	C2095.478271,3355.490723 2123.252197,3355.490723 2150.693359,3355.490723 
	C2154.865479,3359.579834 2152.002686,3363.398193 2150.721436,3366.772217 
	C2134.069824,3410.617676 2102.829590,3439.938232 2059.001465,3455.093506 
	C2021.324341,3468.121582 1982.881836,3467.578125 1945.428711,3453.807129 
	C1898.593506,3436.585938 1868.073608,3402.698242 1853.187622,3355.645508 
	C1841.944580,3320.108398 1841.605347,3283.752441 1851.308472,3247.404297 
	C1868.266724,3183.878662 1928.302979,3123.280273 2023.307007,3133.323730 
	C2111.552490,3142.652832 2160.595947,3218.447998 2160.383545,3288.924316 
	C2160.351562,3299.510742 2160.378906,3310.097412 2160.378906,3321.574951 
	C2155.354492,3322.438721 2151.641602,3323.593994 2147.917725,3323.630615 
	C2128.611084,3323.818848 2109.302002,3323.721191 2087.995117,3323.723145 
M2072.440918,3255.682373 
	C2062.198486,3220.423584 2040.049438,3203.125977 2004.629272,3202.853760 
	C1999.985229,3202.818115 1995.305054,3203.005859 1990.696655,3203.553467 
	C1960.833496,3207.101074 1939.569946,3228.015381 1934.267944,3258.880859 
	C1949.988281,3260.761963 2053.915283,3260.900635 2072.440918,3255.682373 
z"/>
<path fill="#141414" opacity="1.000000" stroke="none" 
	d="
M3498.403809,3386.182129 
	C3475.463379,3422.787842 3445.054443,3447.442627 3404.220215,3457.712646 
	C3363.019287,3468.075195 3322.009277,3467.118164 3282.938965,3449.401123 
	C3233.368164,3426.921875 3203.851807,3387.472900 3192.610107,3334.662598 
	C3186.570801,3306.291992 3187.277344,3277.622070 3195.648682,3249.635498 
	C3212.561279,3193.093506 3248.540527,3154.994385 3305.921875,3138.926758 
	C3344.212646,3128.204834 3382.840088,3129.133545 3419.759277,3143.820801 
	C3478.004883,3166.992920 3510.925049,3211.405762 3519.646729,3273.004883 
	C3525.198730,3312.217529 3519.407227,3350.090332 3498.403809,3386.182129 
M3298.355713,3363.486572 
	C3300.810303,3365.723877 3303.191650,3368.048584 3305.730957,3370.185303 
	C3345.576172,3403.714355 3419.030029,3389.785156 3432.471191,3322.485352 
	C3436.060059,3304.517822 3435.518555,3286.739258 3431.436768,3269.080322 
	C3423.387207,3234.258301 3394.471436,3210.648438 3358.500244,3209.046875 
	C3323.601318,3207.492920 3292.257080,3227.719482 3281.710693,3261.054199 
	C3270.531006,3296.390869 3272.650391,3330.655518 3298.355713,3363.486572 
z"/>
<path fill="#141414" opacity="1.000000" stroke="none" 
	d="
M2889.822266,3165.726318 
	C2930.697754,3135.442139 2975.455322,3127.669189 3023.377441,3135.010742 
	C3091.738037,3145.483398 3135.632568,3185.587891 3153.604980,3251.014404 
	C3169.444580,3308.676270 3159.665283,3363.245605 3119.513916,3409.997070 
	C3090.109131,3444.235352 3051.869141,3460.577393 3007.540039,3463.534180 
	C2983.484375,3465.138916 2959.514160,3463.345459 2936.595947,3455.407471 
	C2881.276855,3436.247559 2846.858887,3397.143799 2832.620117,3341.052979 
	C2823.424561,3304.829102 2825.904053,3268.530029 2839.496094,3233.282227 
	C2849.820557,3206.509277 2867.008301,3184.930908 2889.822266,3165.726318 
M3066.156494,3257.133789 
	C3065.023682,3254.731201 3064.040039,3252.243896 3062.735352,3249.938721 
	C3045.961914,3220.302002 3020.205322,3206.856934 2986.611084,3209.360352 
	C2953.623047,3211.819336 2928.752686,3232.829834 2918.972168,3265.296387 
	C2912.888428,3285.491455 2912.917969,3306.179688 2917.539795,3326.433105 
	C2925.981445,3363.426270 2956.603516,3387.763916 2993.638184,3387.569336 
	C3037.463135,3387.339111 3062.618652,3357.733887 3069.529541,3328.865967 
	C3075.065674,3305.739502 3074.698730,3282.814941 3066.156494,3257.133789 
z"/>
<path fill="#131313" opacity="1.000000" stroke="none" 
	d="
M1167.602539,3388.030518 
	C1159.036743,3364.961670 1157.751709,3342.192627 1157.433960,3319.681641 
	C1156.634766,3263.072754 1157.169189,3206.444824 1157.216431,3149.824707 
	C1157.218628,3147.260254 1157.685669,3144.696289 1157.910889,3142.390381 
	C1172.789429,3138.836426 1205.468628,3138.149170 1243.037109,3140.558594 
	C1243.466309,3145.368652 1244.299316,3150.413086 1244.307983,3155.458740 
	C1244.402588,3210.080566 1244.198853,3264.703613 1244.523193,3319.323486 
	C1244.581909,3329.209229 1245.618530,3339.345215 1248.025635,3348.906982 
	C1253.028931,3368.782227 1266.048340,3380.706787 1286.540894,3384.625000 
	C1297.216309,3386.666260 1307.627075,3386.388184 1318.153198,3384.343750 
	C1337.834229,3380.520752 1350.198120,3368.362793 1355.257568,3349.534668 
	C1357.809326,3340.039307 1358.533691,3329.824219 1358.591797,3319.925537 
	C1358.901001,3267.303955 1358.737183,3214.679688 1358.737183,3162.056152 
	C1358.737183,3155.444336 1358.737305,3148.832520 1358.737305,3142.538086 
	C1372.969971,3138.943115 1410.675537,3138.195557 1443.826538,3140.707520 
	C1444.280762,3144.164307 1445.188843,3147.879639 1445.194580,3151.596436 
	C1445.285522,3210.215088 1445.366943,3268.833740 1445.189087,3327.451904 
	C1445.142700,3342.761963 1443.744873,3357.953369 1440.233765,3373.001953 
	C1430.060059,3416.605713 1403.632935,3444.602539 1360.544556,3456.318115 
	C1321.858887,3466.836426 1282.891113,3466.845459 1244.101929,3456.630127 
	C1207.625610,3447.024170 1181.273926,3425.646729 1167.602539,3388.030518 
z"/>
<path fill="#121212" opacity="1.000000" stroke="none" 
	d="
M1694.771240,3445.994141 
	C1694.700562,3367.567139 1694.650024,3290.993896 1694.534424,3214.420898 
	C1694.532471,3213.160645 1693.739624,3211.901367 1693.097534,3209.991943 
	C1680.574829,3206.076660 1667.103760,3210.197266 1653.040771,3207.302490 
	C1650.238525,3196.556885 1652.044067,3185.309326 1651.712891,3174.254395 
	C1651.395508,3163.663574 1651.644287,3153.055664 1651.644287,3141.800049 
	C1665.498535,3136.718018 1679.849243,3142.345703 1693.668579,3137.924561 
	C1696.781006,3112.829346 1692.651245,3087.536133 1695.987427,3062.778809 
	C1713.857544,3060.544922 1760.552368,3060.610596 1779.466675,3062.975830 
	C1781.406250,3074.994385 1779.943970,3087.527832 1780.333130,3099.934570 
	C1780.725342,3112.436523 1779.741211,3124.999023 1780.996582,3138.401123 
	C1796.211792,3141.238281 1810.875854,3138.235107 1825.015625,3140.347656 
	C1828.394775,3153.824951 1828.924927,3177.703369 1826.463745,3206.623047 
	C1820.008667,3209.878662 1812.610596,3207.958008 1805.566650,3208.288574 
	C1798.274902,3208.631348 1790.954346,3208.364746 1784.145508,3208.364746 
	C1778.427124,3213.846436 1780.464600,3220.190186 1780.452393,3225.870361 
	C1780.304321,3295.119629 1780.355957,3364.369385 1780.355713,3433.618896 
	C1780.355713,3440.233154 1780.355713,3446.847168 1780.355713,3454.297119 
	C1766.243652,3458.291992 1752.348633,3455.864990 1738.685547,3456.272705 
	C1724.767212,3456.687988 1710.826782,3456.364502 1696.434937,3456.364502 
	C1695.748535,3452.821533 1695.266846,3450.334717 1694.771240,3445.994141 
z"/>
<path fill="#151515" opacity="1.000000" stroke="none" 
	d="
M1583.438965,3456.398926 
	C1561.643188,3456.398926 1541.771362,3456.398926 1523.274658,3456.398926 
	C1521.456787,3454.582520 1520.886597,3454.173340 1520.542847,3453.622803 
	C1520.217041,3453.101074 1519.961426,3452.431396 1519.960571,3451.826172 
	C1519.827271,3353.218506 1519.719238,3254.611084 1519.611450,3156.003418 
	C1519.606445,3151.419189 1519.610840,3146.834961 1519.610840,3142.515869 
	C1533.912720,3138.800537 1587.446533,3138.463867 1604.998779,3141.723633 
	C1607.585938,3158.540527 1608.468140,3299.101074 1606.827637,3441.070312 
	C1606.775513,3445.582275 1606.221191,3450.088135 1605.822388,3455.706543 
	C1598.371948,3455.958740 1591.867432,3456.178955 1583.438965,3456.398926 
z"/>
<path fill="#151515" opacity="1.000000" stroke="none" 
	d="
M1573.903320,3099.332275 
	C1568.274170,3099.607178 1564.284424,3099.827881 1560.306152,3099.696289 
	C1530.629395,3098.716309 1510.988037,3078.464844 1510.743164,3048.677979 
	C1510.544312,3024.481934 1523.541992,3004.808105 1545.560913,2998.634277 
	C1566.616455,2992.730713 1586.925049,2994.888428 1602.228394,3012.363525 
	C1617.106079,3029.352783 1619.517334,3049.288330 1611.153442,3070.131836 
	C1604.723633,3086.155273 1592.019043,3095.104736 1573.903320,3099.332275 
z"/>
<path fill="#FFFEFE" opacity="1.000000" stroke="none" 
	d="
M2411.303467,1867.849121 
	C2421.170898,1867.849121 2429.141113,1867.849121 2436.057373,1867.849121 
	C2458.639404,1887.400879 2882.150635,2311.913818 2891.501953,2324.227783 
	C2882.504883,2336.941895 2750.269531,2469.517090 2734.389648,2481.485352 
	C2730.255859,2477.821045 2725.708252,2474.183350 2721.609131,2470.094971 
	C2681.020508,2429.611328 2640.512939,2389.046143 2599.960938,2348.525635 
	C2594.822998,2343.391357 2589.561035,2338.381592 2584.909180,2333.852539 
	C2577.761719,2334.156250 2573.996094,2338.294189 2569.859619,2341.264404 
	C2495.235352,2394.850098 2411.958008,2426.846436 2321.238281,2438.822754 
	C2229.170166,2450.977539 2137.661621,2447.314209 2047.700562,2422.573486 
	C1948.167480,2395.200684 1863.932617,2341.884033 1792.471924,2268.245117 
	C1714.562012,2187.960693 1663.080078,2092.904053 1638.007935,1983.790649 
	C1622.646240,1916.937378 1619.389160,1849.377075 1627.133667,1781.211304 
	C1639.376953,1673.447754 1677.677490,1575.877075 1743.189697,1489.588135 
	C1836.968994,1366.067017 1960.208252,1288.843872 2112.709229,1259.287720 
	C2295.987549,1223.766602 2486.551025,1277.616089 2623.921143,1400.901123 
	C2725.035400,1491.647827 2788.522217,1603.963867 2814.968262,1737.128784 
	C2822.515869,1775.132324 2825.623779,1813.655884 2825.021729,1852.429688 
	C2824.951660,1856.932739 2824.282471,1861.426636 2823.838867,1866.523560 
	C2820.423828,1867.091553 2817.911621,1867.872681 2815.398926,1867.874634 
	C2734.126465,1867.938477 2652.854248,1867.927368 2572.272461,1867.927368 
	C2566.495850,1861.179688 2568.549072,1854.217285 2568.565186,1847.827271 
	C2568.657227,1811.654419 2564.576660,1775.964966 2555.717773,1740.941406 
	C2532.386230,1648.699829 2481.189209,1576.711060 2398.587891,1528.383057 
	C2357.109131,1504.114746 2311.737305,1491.807373 2263.959229,1487.433105 
	C2222.474854,1483.635010 2181.378906,1485.287476 2140.806396,1494.732300 
	C2031.449097,1520.189331 1956.687500,1586.940308 1912.533325,1688.813232 
	C1890.218262,1740.298706 1882.771240,1794.966064 1882.607788,1850.826904 
	C1882.474487,1896.388062 1886.590820,1941.382080 1900.098877,1985.068726 
	C1929.596436,2080.466309 1987.989380,2151.462891 2079.117920,2193.947021 
	C2113.211670,2209.841553 2149.530762,2217.633545 2187.015625,2221.388428 
	C2231.988037,2225.893799 2276.165283,2222.521729 2319.899902,2211.997803 
	C2351.213867,2204.461914 2380.579590,2192.024170 2407.958740,2175.007324 
	C2410.729004,2173.285645 2413.282715,2171.215820 2416.024902,2169.244141 
	C2415.976562,2161.720459 2410.043213,2158.723877 2406.087646,2154.751709 
	C2353.877197,2102.322510 2301.520020,2050.039307 2249.199951,1997.718994 
	C2211.963135,1960.482178 2174.711426,1923.260010 2137.510010,1885.987793 
	C2132.921631,1881.390625 2128.602539,1876.524414 2123.902588,1871.509277 
	C2129.004395,1866.024414 2134.598389,1867.965820 2139.438232,1867.958008 
	C2229.427490,1867.811890 2319.416748,1867.849976 2411.303467,1867.849121 
z"/>
<path fill="#FDFDFD" opacity="1.000000" stroke="none" 
	d="
M998.282227,3281.254395 
	C992.042175,3308.151123 980.285400,3330.137207 961.380371,3348.050537 
	C941.386108,3366.995850 917.686401,3378.018311 890.161865,3380.414551 
	C873.538025,3381.861816 856.892517,3382.104980 840.576965,3377.976074 
	C795.581482,3366.589111 766.174255,3338.083252 751.981018,3294.415771 
	C741.233521,3261.349854 741.538208,3227.783936 751.190186,3194.217285 
	C767.499878,3137.496582 821.135681,3096.503418 891.485046,3105.510498 
	C961.563049,3114.482910 995.609192,3170.175293 1000.834045,3220.173828 
	C1002.933838,3240.267578 1001.634888,3259.902344 998.282227,3281.254395 
z"/>
<path fill="#FBFBFB" opacity="1.000000" stroke="none" 
	d="
M3787.238281,3306.711182 
	C3784.607666,3318.774414 3783.447021,3329.624268 3779.523438,3339.360840 
	C3762.730713,3381.033691 3722.519043,3395.411377 3686.687012,3383.853760 
	C3658.647705,3374.809570 3643.747803,3353.561279 3636.333984,3326.395752 
	C3631.151367,3307.405518 3631.649414,3288.192627 3636.456055,3269.072510 
	C3647.619141,3224.663574 3687.786865,3200.218018 3730.959961,3211.795654 
	C3751.504639,3217.305420 3765.952148,3230.481934 3775.690430,3248.965820 
	C3784.908203,3266.462646 3788.397461,3285.289307 3787.238281,3306.711182 
z"/>
<path fill="#FBFBFB" opacity="1.000000" stroke="none" 
	d="
M2071.965332,3257.373047 
	C2053.915283,3260.900635 1949.988281,3260.761963 1934.267944,3258.880859 
	C1939.569946,3228.015381 1960.833496,3207.101074 1990.696655,3203.553467 
	C1995.305054,3203.005859 1999.985229,3202.818115 2004.629272,3202.853760 
	C2040.049438,3203.125977 2062.198486,3220.423584 2071.965332,3257.373047 
z"/>
<path fill="#FBFBFB" opacity="1.000000" stroke="none" 
	d="
M3297.405762,3362.382324 
	C3272.650391,3330.655518 3270.531006,3296.390869 3281.710693,3261.054199 
	C3292.257080,3227.719482 3323.601318,3207.492920 3358.500244,3209.046875 
	C3394.471436,3210.648438 3423.387207,3234.258301 3431.436768,3269.080322 
	C3435.518555,3286.739258 3436.060059,3304.517822 3432.471191,3322.485352 
	C3419.030029,3389.785156 3345.576172,3403.714355 3305.730957,3370.185303 
	C3303.191650,3368.048584 3300.810303,3365.723877 3297.405762,3362.382324 
z"/>
<path fill="#FBFBFB" opacity="1.000000" stroke="none" 
	d="
M3066.744629,3258.620605 
	C3074.698730,3282.814941 3075.065674,3305.739502 3069.529541,3328.865967 
	C3062.618652,3357.733887 3037.463135,3387.339111 2993.638184,3387.569336 
	C2956.603516,3387.763916 2925.981445,3363.426270 2917.539795,3326.433105 
	C2912.917969,3306.179688 2912.888428,3285.491455 2918.972168,3265.296387 
	C2928.752686,3232.829834 2953.623047,3211.819336 2986.611084,3209.360352 
	C3020.205322,3206.856934 3045.961914,3220.302002 3062.735352,3249.938721 
	C3064.040039,3252.243896 3065.023682,3254.731201 3066.744629,3258.620605 
z"/>
</svg>